#!OML:ASF F:\VICON\USERDATA\INSTALL\rory3\rory3.ASF
:FULLY-SPECIFIED
:DEGREES
3942
root -15.4908 17.8378 15.2434 717.336 80.9111 -1082.34
lowerback 10.8507 1.03718 0.412883
upperback 1.10055 1.51545 0.925904
thorax -4.94963 0.764589 0.505865
lowerneck -18.3401 -5.04763 -11.7228
upperneck 35.5736 -5.2037 7.4758
head 16.4217 -2.3949 4.44234
rclavicle -1.83876e-014 -2.38542e-015
rhumerus -32.9668 -4.73378 -78.8218
rradius 30.5897
rwrist 3.67726
rhand -18.0915 7.53667
rfingers 7.12502
rthumb 8.18205 -22.2849
lclavicle -1.83876e-014 -2.38542e-015
lhumerus -32.1145 4.26638 82.0212
lradius 34.1978
lwrist -2.10268
lhand -22.2617 27.3729
lfingers 7.12502
lthumb 4.15607 57.3122
rfemur -11.2485 -2.72819 20.4122
rtibia 30.638
rfoot -14.9068 -4.37045
rtoes -2.39943
lfemur -11.4423 1.71991 -22.8027
ltibia 35.3133
lfoot -16.8348 6.53475
ltoes -1.32405
3943
root -15.4917 17.8346 15.2819 715.759 82.2686 -1083.94
lowerback 10.7454 0.997064 0.573569
upperback 1.08013 1.48071 0.927947
thorax -4.90806 0.744454 0.424444
lowerneck -18.2264 -5.10073 -11.5979
upperneck 35.5427 -5.32953 7.48479
head 16.3906 -2.42319 4.39973
rclavicle 2.50717e-014 -2.38542e-015
rhumerus -33.0152 -5.43473 -78.4157
rradius 30.5047
rwrist 3.97582
rhand -17.9783 7.51858
rfingers 7.12502
rthumb 8.29127 -22.2987
lclavicle 2.50717e-014 -2.38542e-015
lhumerus -32.3254 3.97895 81.852
lradius 34.0679
lwrist -2.33211
lhand -22.1474 27.3414
lfingers 7.12502
lthumb 4.26645 57.2784
rfemur -11.0563 -3.03895 20.7188
rtibia 30.5984
rfoot -14.8631 -5.33674
rtoes -3.30583
lfemur -11.4177 2.8058 -22.7055
ltibia 35.5852
lfoot -16.8402 6.90417
ltoes -0.0996583
3944
root -15.4941 17.8341 15.3226 713.88 83.5954 -1085.85
lowerback 10.6606 0.930843 0.56252
upperback 1.04631 1.39517 1.00514
thorax -4.89802 0.703383 0.524927
lowerneck -18.1183 -5.12833 -11.6729
upperneck 35.4998 -5.37338 7.57267
head 16.3559 -2.435 4.44378
rclavicle 1.31943e-014 1.35174e-014
rhumerus -32.9958 -6.06483 -77.9512
rradius 30.3489
rwrist 4.24324
rhand -17.7446 7.66853
rfingers 7.12502
rthumb 8.51678 -22.1397
lclavicle 1.31943e-014 1.35174e-014
lhumerus -32.4772 3.77106 81.7801
lradius 33.8214
lwrist -2.35905
lhand -22.392 27.6188
lfingers 7.12502
lthumb 4.03027 57.5604
rfemur -10.8623 -3.29983 21.0207
rtibia 30.5123
rfoot -14.8402 -6.35883
rtoes -3.02711
lfemur -11.4555 3.99868 -22.6112
ltibia 35.8222
lfoot -16.8671 7.38493
ltoes 0.357874
3945
root -15.4968 17.831 15.3641 710.526 84.889 -1089.27
lowerback 10.5822 0.871616 0.57372
upperback 0.991138 1.3232 1.11036
thorax -4.91391 0.668707 0.639701
lowerneck -18.07 -5.17408 -11.6994
upperneck 35.5104 -5.40273 7.52141
head 16.354 -2.45312 4.42158
rclavicle -7.55382e-015 -5.1684e-015
rhumerus -33.0306 -6.39468 -77.5817
rradius 30.2909
rwrist 4.20026
rhand -17.8655 7.7449
rfingers 7.12502
rthumb 8.40013 -22.0681
lclavicle -7.55382e-015 -5.1684e-015
lhumerus -32.5762 3.7038 81.6824
lradius 33.4631
lwrist -2.42629
lhand -22.644 27.635
lfingers 7.12502
lthumb 3.7869 57.5811
rfemur -10.663 -3.70282 21.3631
rtibia 30.3117
rfoot -14.9088 -7.17245
rtoes -1.47143
lfemur -11.5454 5.28179 -22.4524
ltibia 36.0601
lfoot -16.9188 8.17184
ltoes -0.482901
3946
root -15.4928 17.8269 15.4017 699.619 86.0706 -1100.04
lowerback 10.6095 0.757522 1.06146
upperback 1.03648 1.23936 1.2407
thorax -4.87385 0.620516 0.513087
lowerneck -18.1169 -5.18695 -11.5337
upperneck 35.5157 -5.4168 7.39616
head 16.3577 -2.4482 4.33393
rclavicle 8.44835e-015 -9.93923e-015
rhumerus -33.0829 -6.46138 -77.405
rradius 30.3661
rwrist 3.93253
rhand -18.2013 7.50357
rfingers 7.12502
rthumb 8.0761 -22.3221
lclavicle 8.44835e-015 -9.93923e-015
lhumerus -32.6517 3.76476 81.4175
lradius 33.1235
lwrist -2.45498
lhand -22.6162 26.9841
lfingers 7.12502
lthumb 3.81372 56.9297
rfemur -10.2123 -4.26633 22.0468
rtibia 30.0792
rfoot -15.1291 -7.85009
rtoes 0.113918
lfemur -11.3839 6.54997 -21.8764
ltibia 36.2472
lfoot -16.924 8.98829
ltoes -1.01832
3947
root -15.483 17.8196 15.4371 678.599 86.7855 -1120.74
lowerback 10.6862 0.734769 1.82058
upperback 1.20254 1.31151 1.37361
thorax -4.72958 0.647204 0.213797
lowerneck -18.1287 -5.28967 -11.363
upperneck 35.3982 -5.63138 7.41577
head 16.323 -2.506 4.26494
rclavicle 2.75814e-015 -3.77691e-015
rhumerus -33.1728 -6.63736 -77.2408
rradius 30.5609
rwrist 3.43905
rhand -18.554 7.19923
rfingers 7.12502
rthumb 7.73565 -22.6393
lclavicle 2.75814e-015 -3.77691e-015
lhumerus -32.5599 3.64829 81.1808
lradius 32.8143
lwrist -2.75875
lhand -22.3009 27.0609
lfingers 7.12502
lthumb 4.11817 57.0008
rfemur -9.58936 -4.82352 22.9603
rtibia 29.9309
rfoot -15.3992 -8.52157
rtoes 1.51251
lfemur -10.9414 7.6696 -21.0062
ltibia 36.3298
lfoot -16.9998 9.75268
ltoes -0.10253
3948
root -15.4824 17.8127 15.4698 654.486 87.4118 -1144.77
lowerback 10.6378 0.825918 2.09745
upperback 1.26595 1.4614 1.32001
thorax -4.6268 0.717748 -0.018103
lowerneck -18.0431 -5.47277 -11.2222
upperneck 35.2565 -6.03006 7.61334
head 16.287 -2.61911 4.24531
rclavicle 3.13086e-015 -1.23246e-014
rhumerus -33.3026 -7.2534 -76.9962
rradius 30.6682
rwrist 3.15454
rhand -18.9394 7.13668
rfingers 7.12502
rthumb 7.36362 -22.7152
lclavicle 3.13086e-015 -1.23246e-014
lhumerus -32.4255 3.07172 81.1072
lradius 32.5491
lwrist -3.18586
lhand -22.2887 27.6776
lfingers 7.12502
lthumb 4.12996 57.6173
rfemur -9.34197 -5.3222 23.3413
rtibia 29.9056
rfoot -15.4786 -9.3589
rtoes 1.88832
lfemur -10.7529 8.45657 -20.7191
ltibia 36.2817
lfoot -17.3182 10.4208
ltoes 2.47033
3949
root -15.4899 17.8088 15.4979 621.958 87.858 -1177.58
lowerback 10.3749 0.839951 1.87984
upperback 1.13053 1.43937 1.20942
thorax -4.62447 0.707148 -0.00426097
lowerneck -17.9071 -5.53318 -11.1852
upperneck 35.1928 -6.16942 7.71605
head 16.244 -2.65265 4.25692
rclavicle -6.70898e-016 -1.19271e-015
rhumerus -33.4525 -7.735 -76.7274
rradius 30.6285
rwrist 3.12733
rhand -19.0225 7.40283
rfingers 7.12502
rthumb 7.28345 -22.4518
lclavicle -6.70898e-016 -1.19271e-015
lhumerus -32.5008 2.753 81.0251
lradius 32.3315
lwrist -3.59302
lhand -22.3994 28.0251
lfingers 7.12502
lthumb 4.02312 57.9669
rfemur -9.62025 -5.705 23.2509
rtibia 30.0083
rfoot -15.5443 -10.2232
rtoes 1.5416
lfemur -10.9677 9.11946 -21.0436
ltibia 36.0952
lfoot -17.2784 11.54
ltoes 3.14308
3950
root -15.4955 17.8062 15.5253 590.225 87.6164 -1209.74
lowerback 9.96806 0.810135 1.48563
upperback 0.928029 1.34104 1.18397
thorax -4.61846 0.662378 0.209851
lowerneck -17.8389 -5.5375 -11.3529
upperneck 35.233 -6.10734 7.72435
head 16.2492 -2.64386 4.30681
rclavicle 5.56597e-015 9.54166e-015
rhumerus -33.6555 -7.59237 -76.4913
rradius 30.6926
rwrist 2.97149
rhand -18.9759 7.46819
rfingers 7.12502
rthumb 7.32841 -22.3849
lclavicle 5.56597e-015 9.54166e-015
lhumerus -32.6867 2.99204 80.9001
lradius 32.0908
lwrist -3.79103
lhand -22.363 28.1973
lfingers 7.12502
lthumb 4.05824 58.1384
rfemur -10.1184 -5.93312 23.0944
rtibia 30.2325
rfoot -15.8354 -10.9666
rtoes 2.1543
lfemur -11.2813 9.7946 -21.4802
ltibia 35.7586
lfoot -16.9468 12.8319
ltoes 2.20839
3951
root -15.4962 17.8076 15.5526 570 86.7485 -1230.08
lowerback 9.85267 0.721672 1.1489
upperback 0.83362 1.18444 1.20575
thorax -4.66065 0.590433 0.444407
lowerneck -17.8188 -5.51504 -11.5944
upperneck 35.2828 -5.98198 7.75355
head 16.2666 -2.6161 4.39182
rclavicle -1.2424e-015 -1.45113e-014
rhumerus -33.8764 -7.37259 -76.3066
rradius 30.8823
rwrist 2.88653
rhand -19.0583 7.33531
rfingers 7.12502
rthumb 7.24889 -22.5205
lclavicle -1.2424e-015 -1.45113e-014
lhumerus -32.9032 3.60137 80.6587
lradius 31.8984
lwrist -4.01888
lhand -23.1357 28.905
lfingers 7.12502
lthumb 3.31206 58.8591
rfemur -10.236 -6.25722 22.9798
rtibia 30.4689
rfoot -16.262 -11.6634
rtoes 2.92701
lfemur -11.1836 10.2346 -21.7339
ltibia 35.3353
lfoot -16.891 13.6206
ltoes 2.39611
3952
root -15.4899 17.8077 15.5741 557.511 85.5474 -1242.44
lowerback 9.84655 0.593898 0.858538
upperback 0.856609 0.980227 1.1603
thorax -4.63698 0.495062 0.588599
lowerneck -17.7616 -5.49731 -11.7297
upperneck 35.2223 -5.8996 7.75606
head 16.2177 -2.59646 4.43095
rclavicle 4.42296e-015 -6.95746e-015
rhumerus -33.9976 -7.39526 -76.1502
rradius 30.9843
rwrist 2.99863
rhand -19.2117 7.28513
rfingers 7.12502
rthumb 7.10076 -22.5758
lclavicle 4.42296e-015 -6.95746e-015
lhumerus -33.0362 4.1887 80.3389
lradius 31.6822
lwrist -4.50382
lhand -24.0342 29.5184
lfingers 7.12502
lthumb 2.44436 59.4842
rfemur -10.0544 -6.92729 22.7116
rtibia 30.6704
rfoot -16.6867 -12.17
rtoes 3.40122
lfemur -10.7501 10.4589 -21.9998
ltibia 34.8189
lfoot -17.0083 14.1045
ltoes 3.97817
